<svg xmlns="http://www.w3.org/2000/svg" xmlns:xlink="http://www.w3.org/1999/xlink" width="500" zoomAndPan="magnify" viewBox="0 0 375 374.999991" height="500" preserveAspectRatio="xMidYMid meet" version="1.0"><defs><g/></defs><g fill="#000000" fill-opacity="1"><g transform="translate(80.258395, 273.272098)"><g><path d="M 71.457031 2.507812 C 101.039062 2.507812 130.125 -16.546875 130.125 -47.886719 C 130.125 -76.21875 104.050781 -87.25 76.21875 -98.28125 C 54.90625 -107.058594 29.082031 -116.585938 29.082031 -140.152344 C 29.082031 -161.464844 46.382812 -173.25 66.691406 -173.25 C 95.273438 -173.25 112.824219 -157.703125 122.101562 -135.890625 L 124.609375 -136.644531 L 123.605469 -165.726562 C 113.828125 -170.992188 97.53125 -177.257812 74.714844 -177.257812 C 37.859375 -177.257812 13.539062 -158.707031 13.539062 -129.371094 C 13.539062 -102.796875 32.34375 -92.265625 61.929688 -80.480469 C 82.988281 -71.957031 113.828125 -60.421875 113.828125 -35.351562 C 113.828125 -15.042969 96.527344 -2.003906 76.46875 -2.003906 C 41.621094 -2.003906 22.566406 -24.320312 12.785156 -50.644531 L 10.027344 -50.144531 L 11.28125 -15.292969 C 23.066406 -6.769531 45.128906 2.507812 71.457031 2.507812 Z M 71.457031 2.507812 "/></g></g></g><g fill="#96695e" fill-opacity="1"><g transform="translate(135.283345, 274.465725)"><g><path d="M -21.078125 -116.796875 C -17.003906 -128.742188 -10.1875 -136.96875 -0.625 -141.46875 C 8.925781 -145.96875 25.859375 -148.21875 50.171875 -148.21875 C 55.234375 -148.21875 68.023438 -148.003906 88.546875 -147.578125 C 103.441406 -147.160156 116.582031 -143.925781 127.96875 -137.875 C 139.351562 -131.832031 148.242188 -123.296875 154.640625 -112.265625 C 161.035156 -101.234375 164.234375 -88.410156 164.234375 -73.796875 C 164.234375 -51.722656 157.238281 -33.90625 143.25 -20.34375 C 129.269531 -6.78125 111.035156 0 88.546875 0 L 17.078125 0 L 17.28125 -2.109375 L 19.8125 -2.109375 C 23.332031 -2.109375 26.351562 -3.265625 28.875 -5.578125 C 31.40625 -7.898438 32.882812 -10.75 33.3125 -14.125 L 33.3125 -141.25 C 15.738281 -140.832031 3.300781 -138.09375 -4 -133.03125 C -7.800781 -130.363281 -10.679688 -127.796875 -12.640625 -125.328125 C -14.609375 -122.867188 -16.648438 -119.742188 -18.765625 -115.953125 Z M 47.015625 -141.25 L 47.015625 -6.328125 L 88.546875 -6.328125 C 106.398438 -6.328125 120.84375 -12.507812 131.875 -24.875 C 142.90625 -37.25 148.421875 -53.554688 148.421875 -73.796875 C 148.421875 -87.140625 145.925781 -98.90625 140.9375 -109.09375 C 135.945312 -119.289062 128.914062 -127.195312 119.84375 -132.8125 C 110.78125 -138.4375 100.347656 -141.25 88.546875 -141.25 Z M 47.015625 -141.25 "/></g></g></g></svg>